<svg width="120" height="120" viewBox="0 0 120 120" fill="none" xmlns="http://www.w3.org/2000/svg">
  <path d="M60 10A50 50 0 0 1 110 60L90 60A30 30 0 0 0 60 30Z" fill="url(#pieGrad1)"/>
  <path d="M110 60A50 50 0 1 1 35 17L45 34A30 30 0 1 0 90 60Z" fill="url(#pieGrad2)"/>
  <path d="M35 17A50 50 0 0 1 60 10V30A30 30 0 0 0 45 34Z" fill="#FFB547"/>
  <defs>
    <linearGradient id="pieGrad1" x1="60" y1="10" x2="110" y2="60">
      <stop offset="0%" stop-color="#7B61FF"/>
      <stop offset="100%" stop-color="#FF5A5F"/>
    </linearGradient>
    <linearGradient id="pieGrad2" x1="110" y1="60" x2="35" y2="100">
      <stop offset="0%" stop-color="#00D4FF"/>
      <stop offset="100%" stop-color="#7B61FF"/>
    </linearGradient>
  </defs>
</svg>
